<svg width="195" height="60" viewBox="0 0 195 60" fill="none" xmlns="http://www.w3.org/2000/svg">
<g clip-path="url(#clip0_1_2)">
<path d="M5.93449 6.9236C5.93449 5.39409 4.60601 4.15417 2.96725 4.15417C1.32848 4.15417 0 5.39409 0 6.9236V56.7733C0 58.3029 1.32848 59.5428 2.96725 59.5428C4.60601 59.5428 5.93449 58.3029 5.93449 56.7733V6.9236Z" fill="#9440FF"/>
<path d="M29.8035 6.9236C29.8035 5.39409 28.475 4.15417 26.8362 4.15417C25.1975 4.15417 23.869 5.39409 23.869 6.9236V56.7733C23.869 58.3029 25.1975 59.5428 26.8362 59.5428C28.475 59.5428 29.8035 58.3029 29.8035 56.7733V6.9236Z" fill="#9440FF"/>
<path d="M53.6725 6.9236C53.6725 5.39409 52.344 4.15417 50.7052 4.15417C49.0665 4.15417 47.738 5.39409 47.738 6.9236V56.7733C47.738 58.3029 49.0665 59.5428 50.7052 59.5428C52.344 59.5428 53.6725 58.3029 53.6725 56.7733V6.9236Z" fill="#9440FF"/>
<path d="M17.869 2.76943C17.869 1.23992 16.5405 0 14.9017 0C13.263 0 11.9345 1.23992 11.9345 2.76943V52.6192C11.9345 54.1487 13.263 55.3886 14.9017 55.3886C16.5405 55.3886 17.869 54.1487 17.869 52.6192V2.76943Z" fill="#1E2772"/>
<path d="M41.738 2.76943C41.738 1.23992 40.4095 0 38.7707 0C37.132 0 35.8035 1.23992 35.8035 2.76943V52.6192C35.8035 54.1487 37.132 55.3886 38.7707 55.3886C40.4095 55.3886 41.738 54.1487 41.738 52.6192V2.76943Z" fill="#1E2772"/>
<path d="M69.536 44.224C68.064 44.224 66.7413 43.968 65.568 43.456C64.416 42.9227 63.5093 42.1973 62.848 41.28C62.1867 40.3413 61.8453 39.264 61.824 38.048H64.928C65.0347 39.0933 65.4613 39.9787 66.208 40.704C66.976 41.408 68.0853 41.76 69.536 41.76C70.9227 41.76 72.0107 41.4187 72.8 40.736C73.6107 40.032 74.016 39.136 74.016 38.048C74.016 37.1947 73.7813 36.5013 73.312 35.968C72.8427 35.4347 72.256 35.0293 71.552 34.752C70.848 34.4747 69.8987 34.176 68.704 33.856C67.232 33.472 66.048 33.088 65.152 32.704C64.2773 32.32 63.52 31.7227 62.88 30.912C62.2613 30.08 61.952 28.9707 61.952 27.584C61.952 26.368 62.2613 25.2907 62.88 24.352C63.4987 23.4133 64.3627 22.688 65.472 22.176C66.6027 21.664 67.8933 21.408 69.344 21.408C71.4347 21.408 73.1413 21.9307 74.464 22.976C75.808 24.0213 76.5653 25.408 76.736 27.136H73.536C73.4293 26.2827 72.9813 25.536 72.192 24.896C71.4027 24.2347 70.3573 23.904 69.056 23.904C67.84 23.904 66.848 24.224 66.08 24.864C65.312 25.4827 64.928 26.3573 64.928 27.488C64.928 28.2987 65.152 28.96 65.6 29.472C66.0693 29.984 66.6347 30.3787 67.296 30.656C67.9787 30.912 68.928 31.2107 70.144 31.552C71.616 31.9573 72.8 32.3627 73.696 32.768C74.592 33.152 75.36 33.76 76 34.592C76.64 35.4027 76.96 36.512 76.96 37.92C76.96 39.008 76.672 40.032 76.096 40.992C75.52 41.952 74.6667 42.7307 73.536 43.328C72.4053 43.9253 71.072 44.224 69.536 44.224ZM84.1573 29.696C84.7333 28.6933 85.5866 27.8613 86.7173 27.2C87.8693 26.5173 89.2026 26.176 90.7173 26.176C92.2746 26.176 93.6826 26.5493 94.9412 27.296C96.2212 28.0427 97.2239 29.0987 97.9493 30.464C98.6746 31.808 99.0373 33.376 99.0373 35.168C99.0373 36.9387 98.6746 38.5173 97.9493 39.904C97.2239 41.2907 96.2212 42.368 94.9412 43.136C93.6826 43.904 92.2746 44.288 90.7173 44.288C89.2239 44.288 87.9013 43.9573 86.7493 43.296C85.6186 42.6133 84.7546 41.7707 84.1573 40.768V52.32H81.2453V26.464H84.1573V29.696ZM96.0613 35.168C96.0613 33.8453 95.7946 32.6933 95.2613 31.712C94.7279 30.7307 94.0026 29.984 93.0853 29.472C92.1893 28.96 91.1973 28.704 90.1093 28.704C89.0426 28.704 88.0506 28.9707 87.1333 29.504C86.2373 30.016 85.5119 30.7733 84.9573 31.776C84.4239 32.7573 84.1573 33.8987 84.1573 35.2C84.1573 36.5227 84.4239 37.6853 84.9573 38.688C85.5119 39.6693 86.2373 40.4267 87.1333 40.96C88.0506 41.472 89.0426 41.728 90.1093 41.728C91.1973 41.728 92.1893 41.472 93.0853 40.96C94.0026 40.4267 94.7279 39.6693 95.2613 38.688C95.7946 37.6853 96.0613 36.512 96.0613 35.168ZM105.782 29.312C106.294 28.3093 107.02 27.5307 107.958 26.976C108.918 26.4213 110.081 26.144 111.446 26.144V29.152H110.678C107.414 29.152 105.782 30.9227 105.782 34.464V44H102.87V26.464H105.782V29.312ZM130.808 34.56C130.808 35.1147 130.776 35.7013 130.712 36.32H116.696C116.802 38.048 117.389 39.4027 118.456 40.384C119.544 41.344 120.856 41.824 122.392 41.824C123.65 41.824 124.696 41.536 125.528 40.96C126.381 40.3627 126.978 39.5733 127.32 38.592H130.456C129.986 40.2773 129.048 41.6533 127.64 42.72C126.232 43.7653 124.482 44.288 122.392 44.288C120.728 44.288 119.234 43.9147 117.912 43.168C116.61 42.4213 115.586 41.3653 114.84 40C114.093 38.6133 113.72 37.0133 113.72 35.2C113.72 33.3867 114.082 31.7973 114.808 30.432C115.533 29.0667 116.546 28.0213 117.848 27.296C119.17 26.5493 120.685 26.176 122.392 26.176C124.056 26.176 125.528 26.5387 126.808 27.264C128.088 27.9893 129.069 28.992 129.752 30.272C130.456 31.5307 130.808 32.96 130.808 34.56ZM127.8 33.952C127.8 32.8427 127.554 31.8933 127.064 31.104C126.573 30.2933 125.901 29.6853 125.048 29.28C124.216 28.8533 123.288 28.64 122.264 28.64C120.792 28.64 119.533 29.1093 118.488 30.048C117.464 30.9867 116.877 32.288 116.728 33.952H127.8ZM133.564 35.168C133.564 33.376 133.926 31.808 134.652 30.464C135.377 29.0987 136.369 28.0427 137.628 27.296C138.908 26.5493 140.337 26.176 141.916 26.176C143.281 26.176 144.55 26.496 145.724 27.136C146.897 27.7547 147.793 28.576 148.412 29.6V20.32H151.356V44H148.412V40.704C147.836 41.7493 146.982 42.6133 145.852 43.296C144.721 43.9573 143.398 44.288 141.884 44.288C140.326 44.288 138.908 43.904 137.628 43.136C136.369 42.368 135.377 41.2907 134.652 39.904C133.926 38.5173 133.564 36.9387 133.564 35.168ZM148.412 35.2C148.412 33.8773 148.145 32.7253 147.612 31.744C147.078 30.7627 146.353 30.016 145.436 29.504C144.54 28.9707 143.548 28.704 142.46 28.704C141.372 28.704 140.38 28.96 139.484 29.472C138.588 29.984 137.873 30.7307 137.34 31.712C136.806 32.6933 136.54 33.8453 136.54 35.168C136.54 36.512 136.806 37.6853 137.34 38.688C137.873 39.6693 138.588 40.4267 139.484 40.96C140.38 41.472 141.372 41.728 142.46 41.728C143.548 41.728 144.54 41.472 145.436 40.96C146.353 40.4267 147.078 39.6693 147.612 38.688C148.145 37.6853 148.412 36.5227 148.412 35.2ZM159.829 28.864V39.2C159.829 40.0533 160.01 40.6613 160.373 41.024C160.735 41.3653 161.365 41.536 162.26 41.536H164.405V44H161.781C160.159 44 158.943 43.6267 158.133 42.88C157.322 42.1333 156.917 40.9067 156.917 39.2V28.864H154.645V26.464H156.917V22.048H159.829V26.464H164.405V28.864H159.829ZM174.141 44.288C172.797 44.288 171.591 44.064 170.525 43.616C169.458 43.1467 168.615 42.5067 167.997 41.696C167.378 40.864 167.037 39.9147 166.973 38.848H169.981C170.066 39.7227 170.471 40.4373 171.197 40.992C171.943 41.5467 172.914 41.824 174.109 41.824C175.218 41.824 176.093 41.5787 176.733 41.088C177.373 40.5973 177.693 39.9787 177.693 39.232C177.693 38.464 177.351 37.8987 176.669 37.536C175.986 37.152 174.93 36.7787 173.501 36.416C172.199 36.0747 171.133 35.7333 170.301 35.392C169.49 35.0293 168.786 34.5067 168.189 33.824C167.613 33.12 167.325 32.2027 167.325 31.072C167.325 30.176 167.591 29.3547 168.125 28.608C168.658 27.8613 169.415 27.2747 170.397 26.848C171.378 26.4 172.498 26.176 173.757 26.176C175.698 26.176 177.266 26.6667 178.461 27.648C179.655 28.6293 180.295 29.9733 180.381 31.68H177.469C177.405 30.7627 177.031 30.0267 176.349 29.472C175.687 28.9173 174.791 28.64 173.661 28.64C172.615 28.64 171.783 28.864 171.165 29.312C170.546 29.76 170.237 30.3467 170.237 31.072C170.237 31.648 170.418 32.128 170.781 32.512C171.165 32.8747 171.634 33.1733 172.189 33.408C172.765 33.6213 173.554 33.8667 174.557 34.144C175.815 34.4853 176.839 34.8267 177.629 35.168C178.418 35.488 179.09 35.9787 179.645 36.64C180.221 37.3013 180.519 38.1653 180.541 39.232C180.541 40.192 180.274 41.056 179.741 41.824C179.207 42.592 178.45 43.2 177.469 43.648C176.509 44.0747 175.399 44.288 174.141 44.288ZM188.428 21.696L188.076 37.696H185.644L185.292 21.696H188.428ZM186.988 44.192C186.433 44.192 185.964 44 185.58 43.616C185.196 43.232 185.004 42.7627 185.004 42.208C185.004 41.6533 185.196 41.184 185.58 40.8C185.964 40.416 186.433 40.224 186.988 40.224C187.521 40.224 187.969 40.416 188.332 40.8C188.716 41.184 188.908 41.6533 188.908 42.208C188.908 42.7627 188.716 43.232 188.332 43.616C187.969 44 187.521 44.192 186.988 44.192Z" fill="black"/>
</g>
<defs>
<clipPath id="clip0_1_2">
<rect width="195" height="60" fill="white"/>
</clipPath>
</defs>
</svg>
